<svg width="110" height="35" viewBox="0 0 162 59" fill="none" xmlns="http://www.w3.org/2000/svg">
<path d="M10.0587 1.23797V3.59284H3.304V55.5238H10.0587V57.8787H0.639284V1.23797H10.0587ZM31.4031 0.432358V5.20406H23.9667V53.4788H31.4031V58.1885H18.5753V0.432358H31.4031ZM143.4 0.432358V58.1885H130.572V53.4788H138.008V5.20406H130.572V0.432358H143.4ZM161.325 1.23797V57.8787H151.906V55.5238H158.661V3.59284H151.906V1.23797H161.325Z" fill="#838383"/>
<path d="M63.6574 25.9154V30.8476H49.4054V46.0375H63.6574L64.898 39.8345H68.9224V51H37.6045V47.2782L42.8695 46.0375V12.5712L37.6045 11.3306V7.94164L49.4054 7.60879H68.287V18.1691H64.2625L62.7193 12.5712H49.4054V25.9154H63.6574Z" fill="#FF8EF4" fill-opacity="0.95"/>
<path d="M113.554 15.0525L111.678 19.7123L102.086 39.2293L97.1237 39.5319L87.5316 19.4097L85.9581 15.0525V46.0375L91.8586 47.2782V51H75.1255V47.2782L80.3905 46.0375V12.5712L75.1255 11.3306V7.94164L89.0748 7.60879L100.271 32.4211L111.981 7.94164L125.022 7.60879V11.3306L119.727 12.5712V46.0375L125.022 47.2782V51H107.654V47.2782L113.554 46.0375V15.0525Z" fill="#81E98B"/>
</svg>
