<svg xmlns="http://www.w3.org/2000/svg"  viewBox="0 0 64 64" width="48px" height="48px"><g id="Icons"><path fill="#00a0c8" d="M6,22h36c1.105,0,2-0.895,2-2V8c0-1.105-0.895-2-2-2H6C4.895,6,4,6.895,4,8v12C4,21.105,4.895,22,6,22z"/><path fill="#0a5078" d="M32,22h10c1.105,0,2-0.895,2-2V8c0-1.105-0.895-2-2-2H32V22z"/><path fill="#0a5078" d="M9,15h18c0.552,0,1,0.448,1,1v0c0,0.552-0.448,1-1,1H9c-0.552,0-1-0.448-1-1v0C8,15.448,8.448,15,9,15z"/><path fill="#0a5078" d="M9,11h18c0.552,0,1,0.448,1,1v0c0,0.552-0.448,1-1,1H9c-0.552,0-1-0.448-1-1v0C8,11.448,8.448,11,9,11z"/><circle cx="38" cy="14" r="2" fill="#00a0c8"/><path fill="#00a0c8" d="M6,40h36c1.105,0,2-0.895,2-2V26c0-1.105-0.895-2-2-2H6c-1.105,0-2,0.895-2,2v12C4,39.105,4.895,40,6,40z"/><path fill="#0a5078" d="M32,40h10c1.105,0,2-0.895,2-2V26c0-1.105-0.895-2-2-2H32V40z"/><path fill="#0a5078" d="M9,33h18c0.552,0,1,0.448,1,1l0,0c0,0.552-0.448,1-1,1H9c-0.552,0-1-0.448-1-1l0,0C8,33.448,8.448,33,9,33z"/><path fill="#0a5078" d="M9,29h18c0.552,0,1,0.448,1,1v0c0,0.552-0.448,1-1,1H9c-0.552,0-1-0.448-1-1v0C8,29.448,8.448,29,9,29z"/><circle cx="38" cy="32" r="2" fill="#fab400"/><path fill="#00a0c8" d="M6,58h36c1.105,0,2-0.895,2-2V44c0-1.105-0.895-2-2-2H6c-1.105,0-2,0.895-2,2v12C4,57.105,4.895,58,6,58z"/><path fill="#0a5078" d="M32,58h10c1.105,0,2-0.895,2-2V44c0-1.105-0.895-2-2-2H32V58z"/><path fill="#0a5078" d="M9,51h18c0.552,0,1,0.448,1,1l0,0c0,0.552-0.448,1-1,1H9c-0.552,0-1-0.448-1-1l0,0C8,51.448,8.448,51,9,51z"/><path fill="#0a5078" d="M9,47h18c0.552,0,1,0.448,1,1l0,0c0,0.552-0.448,1-1,1H9c-0.552,0-1-0.448-1-1l0,0C8,47.448,8.448,47,9,47z"/><circle cx="38" cy="50" r="2" fill="#00a0c8"/><rect width="36" height="2" x="6" y="22" fill="#c80a50"/><rect width="36" height="1" x="6" y="22" fill="#a00028"/><rect width="36" height="2" x="6" y="40" fill="#c80a50"/><rect width="36" height="1" x="6" y="40" fill="#a00028"/><g><path fill="#00325a" d="M42,40v2H28.81c-0.23-0.65-0.41-1.32-0.55-2H42z"/></g><g><path fill="#0082aa" d="M44,26v12c0,1.1-0.9,2-2,2H28.26C28.09,39.12,28,38.22,28,37.3V24h14C43.1,24,44,24.9,44,26z"/></g><g><path fill="#0082aa" d="M32,42v5.08c-1.41-1.43-2.5-3.17-3.19-5.08H32z"/></g><g><path fill="#00325a" d="M44,44v8.87c-0.24,0-0.48-0.05-0.7-0.13l-3.8-1.42C39.81,50.97,40,50.51,40,50c0-1.1-0.9-2-2-2 c-1.08,0-1.97,0.87-2,1.95c-1.52-0.72-2.86-1.69-4-2.87V42h10C43.1,42,44,42.9,44,44z"/></g><g><path fill="#a00028" d="M42,40v2H28.81c-0.23-0.65-0.41-1.32-0.55-2H42z"/></g><g><path fill="#0082aa" d="M40,50c0,0.51-0.19,0.97-0.5,1.32l-2.42-0.91c-0.37-0.14-0.73-0.29-1.08-0.46c0.03-1.08,0.92-1.95,2-1.95 C39.1,48,40,48.9,40,50z"/></g><g><path fill="#fab400" d="M50.916,49.407l-6.213,2.33c-0.453,0.17-0.952,0.17-1.404,0l-6.213-2.33C31.62,47.358,28,42.134,28,36.298 V18.781c0-0.459,0.312-0.859,0.757-0.97l14.757-3.689c0.318-0.08,0.652-0.08,0.97,0l14.757,3.689 C59.688,17.922,60,18.322,60,18.781v17.517C60,42.134,56.38,47.358,50.916,49.407z"/><path fill="#fab400" d="M50.916,49.407l-6.213,2.33c-0.453,0.17-0.952,0.17-1.404,0l-6.213-2.33C31.62,47.358,28,42.134,28,36.298 V18.781c0-0.459,0.312-0.859,0.757-0.97l14.757-3.689c0.318-0.08,0.652-0.08,0.97,0l14.757,3.689 C59.688,17.922,60,18.322,60,18.781v17.517C60,42.134,56.38,47.358,50.916,49.407z"/><path fill="#0a5078" d="M38.488,45.662C34.607,44.206,32,40.443,32,36.298V21.123l12-3l12,3v15.175 c0,4.145-2.607,7.908-6.488,9.364L44,47.728L38.488,45.662z"/><path fill="#00325a" d="M49,30v-2c0-3.309-2.691-6-6-6s-6,2.691-6,6v2c-1.105,0-2,0.895-2,2v8c0,1.105,0.895,2,2,2h12 c1.105,0,2-0.895,2-2v-8C51,30.895,50.105,30,49,30z M39,30v-2c0-2.206,1.794-4,4-4s4,1.794,4,4v2H39z"/><path fill="#00a0c8" d="M50,42H38c-1.105,0-2-0.895-2-2v-8c0-1.105,0.895-2,2-2h12c1.105,0,2,0.895,2,2v8 C52,41.105,51.105,42,50,42z"/><path fill="#f0f0f0" d="M50,30h-2v-2c0-2.206-1.794-4-4-4s-4,1.794-4,4v2h-2v-2c0-3.309,2.691-6,6-6s6,2.691,6,6V30z"/><path fill="#00325a" d="M46,34c0-1.246-1.14-2.226-2.434-1.954c-0.722,0.152-1.326,0.728-1.503,1.444 c-0.234,0.945,0.205,1.818,0.937,2.242V39c0,0.552,0.448,1,1,1l0,0c0.552,0,1-0.448,1-1v-3.268C45.598,35.386,46,34.74,46,34z"/></g></g></svg>