<svg xmlns="http://www.w3.org/2000/svg"  viewBox="0 0 64 64" width="48px" height="48px"><g id="Icons"><path fill="#0a5078" d="M6,54h52c1.105,0,2-0.895,2-2V16c0-1.105-0.895-2-2-2H6c-1.105,0-2,0.895-2,2v36C4,53.105,4.895,54,6,54z"/><path fill="#00325a" d="M51,14h-8v20c0,0.472,0.171,0.901,0.445,1.243c-1.915,1.522-2.869,4.221-2.184,6.833 c0.95,3.621,4.232,5.297,5.357,5.774c0.247,0.105,0.517,0.105,0.764,0C48.704,47.29,53,45.077,53,40 c0-1.806-0.802-3.42-2.064-4.52c0,0,0,0,0,0c-0.112-0.097-0.226-0.19-0.345-0.279C50.844,34.865,51,34.453,51,34V14z"/><path fill="#00a0c8" d="M9,50h46c0.552,0,1-0.448,1-1V19c0-0.552-0.448-1-1-1H9c-0.552,0-1,0.448-1,1v30C8,49.552,8.448,50,9,50z"/><path fill="#0082aa" d="M51,18h-8v16c0,0.472,0.171,0.901,0.445,1.243c-1.915,1.522-2.869,4.221-2.184,6.833 c0.95,3.621,4.232,5.297,5.357,5.774c0.247,0.105,0.517,0.105,0.764,0C48.704,47.29,53,45.077,53,40 c0-1.806-0.802-3.42-2.064-4.52c0,0,0,0,0,0c-0.112-0.097-0.226-0.19-0.345-0.279C50.844,34.865,51,34.453,51,34V18z"/><rect width="8" height="4" x="28" y="54" fill="#0a5078" transform="rotate(-180 32 56)"/><path fill="#0a5078" d="M20,60h24v0c0-1.105-0.895-2-2-2H22C20.895,58,20,58.895,20,60L20,60z"/><rect width="8" height="1" x="28" y="54" fill="#00325a" transform="rotate(-180 32 54.5)"/><path fill="#0a5078" d="M47.872,34.001c-4.023,0.084-6.633,4.182-5.612,8.075c0.95,3.621,4.232,5.297,5.357,5.774 c0.247,0.105,0.517,0.105,0.764,0C49.704,47.29,54,45.077,54,40C54,36.644,51.245,33.931,47.872,34.001z"/><path fill="#00325a" d="M47.872,34.001c-1.497,0.031-2.796,0.619-3.788,1.544C44.323,36.383,45.086,37,46,37h4 c0.938,0,1.72-0.649,1.936-1.52C50.852,34.535,49.43,33.969,47.872,34.001z"/><path fill="#f0f0f0" d="M50,36h-4c-1.105,0-2-0.895-2-2v-8h8v8C52,35.105,51.105,36,50,36z"/><path fill="#c80a50" d="M52,26h-8V8c0-2.209,1.791-4,4-4h0c2.209,0,4,1.791,4,4V26z"/><rect width="8" height="1" x="44" y="25" fill="#a00028"/><path fill="#fab400" d="M39,34H11c-0.552,0-1-0.448-1-1V21c0-0.552,0.448-1,1-1h28c0.552,0,1,0.448,1,1v12 C40,33.552,39.552,34,39,34z"/><path fill="#00325a" d="M40,33l-5.879-5.879c-1.172-1.172-3.071-1.172-4.243,0L23,34h16C39.552,34,40,33.552,40,33L40,33z"/><g><path fill="#0a5078" d="M10,33l9.879-9.879c1.172-1.172,3.071-1.172,4.243,0L35,34H11C10.448,34,10,33.552,10,33L10,33z"/></g><g><path fill="#c80a50" d="M26,40H12c-1.105,0-2-0.895-2-2v0c0-1.105,0.895-2,2-2h14c1.105,0,2,0.895,2,2v0C28,39.105,27.105,40,26,40z"/></g><g><path fill="#0082aa" d="M39,44H11c-0.552,0-1-0.448-1-1l0,0c0-0.552,0.448-1,1-1h28c0.552,0,1,0.448,1,1l0,0 C40,43.552,39.552,44,39,44z"/></g><g><path fill="#0082aa" d="M39,48H11c-0.552,0-1-0.448-1-1l0,0c0-0.552,0.448-1,1-1h28c0.552,0,1,0.448,1,1l0,0 C40,47.552,39.552,48,39,48z"/></g></g></svg>