<svg xmlns="http://www.w3.org/2000/svg"  viewBox="0 0 64 64" width="48px" height="48px"><g id="Icons"><path fill="#0a5078" d="M6,54h52c1.105,0,2-0.895,2-2V16c0-1.105-0.895-2-2-2H6c-1.105,0-2,0.895-2,2v36C4,53.105,4.895,54,6,54z"/><path fill="#00325a" d="M25,45.657c0-1.061-0.421-2.078-1.172-2.828l-0.006-0.006h0L23,42c1.105,0,2-0.895,2-2c0-1.105-0.895-2-2-2 h-2V26l1.707-1.707C22.895,24.105,23,23.851,23,23.586V19c0-0.552-0.448-1-1-1h-6c-0.552,0-1,0.448-1,1v4.586 c0,0.265,0.105,0.52,0.293,0.707L17,26v12h-2c-1.105,0-2,0.895-2,2c0,1.105,0.895,2,2,2l-0.823,0.823h0l-0.006,0.006 C13.421,43.579,13,44.596,13,45.657V50h12V45.657z"/><path fill="#00325a" d="M31,18c0,1.105,0.895,2,2,2v12c-1.105,0-2,0.895-2,2v16h12V34c0-1.105-0.895-2-2-2V20c1.105,0,2-0.895,2-2 c0-1.105,0.895-2,2-2h4c1.105,0,2,0.895,2,2c0,1.105,0.895,2,2,2s2-0.895,2-2v-2c0-0.682-0.058-1.349-0.167-2H31V18z"/><path fill="#00325a" d="M21,16h4c1.105,0,2-0.895,2-2h-8C19,15.105,19.895,16,21,16z"/><path fill="#00a0c8" d="M9,50h46c0.552,0,1-0.448,1-1V19c0-0.552-0.448-1-1-1H9c-0.552,0-1,0.448-1,1v30C8,49.552,8.448,50,9,50z"/><path fill="#0082aa" d="M51,18c0,1.105,0.895,2,2,2s2-0.895,2-2H51z"/><path fill="#0082aa" d="M41,32V20c1.105,0,2-0.895,2-2H31c0,1.105,0.895,2,2,2v12c-1.105,0-2,0.895-2,2v16h12V34 C43,32.895,42.105,32,41,32z"/><path fill="#0082aa" d="M23.828,42.828l-0.006-0.006h0L23,42c1.105,0,2-0.895,2-2c0-1.105-0.895-2-2-2h-2V26l1.707-1.707 C22.895,24.105,23,23.851,23,23.586V19c0-0.552-0.448-1-1-1h-6c-0.552,0-1,0.448-1,1v4.586c0,0.265,0.105,0.52,0.293,0.707 L17,26v12h-2c-1.105,0-2,0.895-2,2c0,1.105,0.895,2,2,2l-0.823,0.823h0l-0.006,0.006C13.421,43.579,13,44.596,13,45.657V50h12 v-4.343C25,44.596,24.579,43.579,23.828,42.828z"/><rect width="8" height="4" x="28" y="54" fill="#0a5078" transform="rotate(-180 32 56)"/><g><path fill="#0a5078" d="M20,60h24v0c0-1.105-0.895-2-2-2H22C20.895,58,20,58.895,20,60L20,60z"/></g><g><rect width="8" height="1" x="28" y="54" fill="#00325a" transform="rotate(-180 32 54.5)"/></g><g><path fill="#fab400" d="M26,16h-4c-1.105,0-2-0.895-2-2V6c0-1.105,0.895-2,2-2h4c1.105,0,2,0.895,2,2v8C28,15.105,27.105,16,26,16z"/><rect width="8" height="12" x="34" y="20" fill="#f0f0f0"/><path fill="#fab400" d="M26,50v-4.343c0-1.061-0.421-2.078-1.172-2.828L24,42h-8l-0.828,0.828C14.421,43.579,14,44.596,14,45.657 V50H26z"/><rect width="12" height="1" x="14" y="49" fill="#dc9600"/><path fill="#fab400" d="M24,42h-8c-1.105,0-2-0.895-2-2v0c0-1.105,0.895-2,2-2h8c1.105,0,2,0.895,2,2v0C26,41.105,25.105,42,24,42z"/><path fill="#dc9600" d="M24.823,42.823L24,42h-8l-0.823,0.823C15.428,42.936,15.707,43,16,43h8 C24.293,43,24.572,42.936,24.823,42.823z"/><rect width="4" height="8" x="28" y="6" fill="#c80a50"/><path fill="#fab400" d="M32,6v12c0,1.105,0.895,2,2,2h8c1.105,0,2-0.895,2-2v0c0-1.105,0.895-2,2-2h4c1.105,0,2,0.895,2,2v0 c0,1.105,0.895,2,2,2h0c1.105,0,2-0.895,2-2v-2c0-6.627-5.373-12-12-12H34C32.895,4,32,4.895,32,6z"/><rect width="4" height="12" x="18" y="26" fill="#f0f0f0"/><path fill="#d2d2d2" d="M18,26l-1.707-1.707C16.105,24.105,16,23.851,16,23.586V19c0-0.552,0.448-1,1-1h6c0.552,0,1,0.448,1,1 v4.586c0,0.265-0.105,0.52-0.293,0.707L22,26H18z"/><path fill="#dc9600" d="M44,18v-1c0-1.105,0.895-2,2-2h4c1.105,0,2,0.895,2,2v1v0c0-1.105-0.895-2-2-2h-4 C44.895,16,44,16.895,44,18L44,18z"/><rect width="1" height="8" x="28" y="6" fill="#a00028"/><rect width="8" height="1" x="34" y="20" fill="#d2d2d2"/><path fill="#c80a50" d="M44,50V34c0-1.105-0.895-2-2-2h-8c-1.105,0-2,0.895-2,2v16H44z"/><path fill="#be7800" d="M18,50v-3c0-0.552-0.448-1-1-1s-1,0.448-1,1v3H18z"/><path fill="#be7800" d="M24,50v-3c0-0.552-0.448-1-1-1s-1,0.448-1,1v3H24z"/></g><g><rect width="12" height="1" x="32" y="49" fill="#a00028"/></g></g></svg>