<svg xmlns="http://www.w3.org/2000/svg"  viewBox="0 0 64 64" width="48px" height="48px"><g id="Icons"><path fill="#00325a" d="M14,44H6c-1.105,0-2,0.895-2,2v12c0,1.105,0.895,2,2,2h8c1.105,0,2-0.895,2-2V46 C16,44.895,15.105,44,14,44z"/><path fill="#f0c8a0" d="M51,43c-0.828,0-1.578,0.336-2.121,0.879L40.757,52H37c1.657,0,3-1.343,3-3s-1.343-3-3-3h-5l-1.657-1.657 c-1.5-1.5-3.535-2.343-5.657-2.343h-1.373c-2.122,0-4.157,0.843-5.657,2.343L16,46v12h26c0.829,0,1.579-0.336,2.122-0.879 l8.999-8.999C53.664,47.579,54,46.829,54,46C54,44.343,52.657,43,51,43z"/><circle cx="10" cy="55" r="2" fill="#f0f0f0"/><path fill="#d2aa82" d="M28.5,52c-0.276,0-0.5,0.224-0.5,0.5c0,0.276,0.224,0.5,0.5,0.5H37c1.005,0,1.914-0.385,2.618-1H28.5z"/><path fill="#fab400" d="M46,18c0-7.956-6.637-14.362-14.676-13.984c-6.892,0.324-12.653,5.827-13.267,12.7 c-0.482,5.393,2.104,10.21,6.203,12.934c1.098,0.73,1.74,1.975,1.74,3.294V34h12v-1.058c0-1.322,0.649-2.567,1.75-3.3 C43.515,27.136,46,22.863,46,18z"/><circle cx="32" cy="40" r="3" fill="#0a5078"/><path fill="#c80a50" d="M38,34H26v4c0,1.105,0.895,2,2,2h8c1.105,0,2-0.895,2-2V34z"/><g><path fill="#dc9600" d="M39.778,25.364c0.391-0.391,0.391-1.024,0-1.414l-0.364-0.364c-0.311-0.311-0.364-0.778-0.176-1.175 c0.108-0.229,0.206-0.465,0.293-0.705C39.679,21.292,40.047,21,40.486,21H41c0.552,0,1-0.448,1-1v-2c0-0.552-0.448-1-1-1h-0.514 c-0.439,0-0.806-0.292-0.955-0.705c-0.087-0.241-0.184-0.476-0.293-0.705c-0.188-0.397-0.134-0.865,0.176-1.175l0.364-0.364 c0.391-0.391,0.391-1.024,0-1.414l-1.414-1.414c-0.391-0.391-1.024-0.391-1.414,0l-0.364,0.364 c-0.311,0.311-0.778,0.364-1.175,0.176c-0.229-0.108-0.465-0.206-0.705-0.293C34.292,11.321,34,10.953,34,10.514V10 c0-0.552-0.448-1-1-1h-2c-0.552,0-1,0.448-1,1v0.514c0,0.439-0.292,0.806-0.705,0.955c-0.241,0.087-0.476,0.184-0.705,0.293 c-0.397,0.188-0.865,0.134-1.175-0.176l-0.364-0.364c-0.391-0.391-1.024-0.391-1.414,0l-1.414,1.414 c-0.391,0.391-0.391,1.024,0,1.414l0.364,0.364c0.311,0.311,0.364,0.778,0.176,1.175c-0.108,0.229-0.206,0.465-0.293,0.705 C24.321,16.708,23.953,17,23.514,17H23c-0.552,0-1,0.448-1,1v2c0,0.552,0.448,1,1,1h0.514c0.439,0,0.806,0.292,0.955,0.705 c0.087,0.241,0.184,0.476,0.293,0.705c0.188,0.397,0.134,0.865-0.176,1.175l-0.364,0.364c-0.391,0.391-0.391,1.024,0,1.414 l1.414,1.414c0.391,0.391,1.024,0.391,1.414,0l0.364-0.364c0.311-0.311,0.778-0.364,1.175-0.176 c0.229,0.108,0.465,0.206,0.705,0.293C29.708,26.679,30,27.047,30,27.486V28c0,0.552,0.448,1,1,1h2c0.552,0,1-0.448,1-1v-0.514 c0-0.439,0.292-0.806,0.705-0.955c0.241-0.087,0.476-0.184,0.705-0.293c0.397-0.188,0.865-0.134,1.175,0.176l0.364,0.364 c0.391,0.391,1.024,0.391,1.414,0L39.778,25.364z M32,23c-2.209,0-4-1.791-4-4c0-2.209,1.791-4,4-4s4,1.791,4,4 C36,21.209,34.209,23,32,23z"/><path fill="#dc9600" d="M45.999,17.833l-0.75,0.31c-0.51,0.211-0.753,0.796-0.541,1.307l0.197,0.475 c0.168,0.405,0.038,0.857-0.286,1.152c-0.189,0.172-0.369,0.353-0.54,0.54c-0.295,0.325-0.748,0.455-1.153,0.287l-0.475-0.197 c-0.51-0.211-1.095,0.031-1.307,0.541l-0.765,1.848c-0.211,0.51,0.031,1.095,0.541,1.307l0.475,0.197 c0.406,0.168,0.634,0.58,0.613,1.019c-0.012,0.253-0.013,0.508,0,0.764c0.008,0.164-0.019,0.324-0.077,0.468 C44.444,25.325,46,21.847,46,18C46,17.944,46,17.889,45.999,17.833z"/><path fill="#dc9600" d="M21.992,27.381c0.012-0.253,0.013-0.508,0-0.764c-0.021-0.438,0.207-0.849,0.612-1.017l0.475-0.197 c0.51-0.211,0.753-0.796,0.541-1.307l-0.765-1.848c-0.211-0.51-0.796-0.753-1.307-0.541l-0.475,0.197 c-0.405,0.168-0.857,0.038-1.152-0.286c-0.172-0.189-0.352-0.369-0.54-0.54c-0.325-0.295-0.455-0.748-0.287-1.154l0.197-0.475 c0.211-0.51-0.031-1.095-0.541-1.307l-0.749-0.31c-0.046,3.913,1.518,7.454,4.068,10.017 C22.011,27.705,21.984,27.545,21.992,27.381z"/></g><g><path fill="#0a5078" d="M23,16h0.514c0.439,0,0.806-0.292,0.955-0.705c0.087-0.241,0.184-0.476,0.293-0.705 c0.188-0.397,0.134-0.865-0.176-1.175l-0.364-0.364c-0.391-0.391-0.391-1.024,0-1.414l1.414-1.414 c0.391-0.391,1.024-0.391,1.414,0l0.364,0.364c0.311,0.311,0.778,0.364,1.175,0.176c0.229-0.108,0.465-0.206,0.705-0.293 C29.708,10.321,30,9.953,30,9.514V9c0-0.552,0.448-1,1-1h2c0.552,0,1,0.448,1,1v0.514c0,0.439,0.292,0.806,0.705,0.955 c0.241,0.087,0.476,0.184,0.705,0.293c0.397,0.188,0.865,0.134,1.175-0.176l0.364-0.364c0.391-0.391,1.024-0.391,1.414,0 l1.414,1.414c0.391,0.391,0.391,1.024,0,1.414l-0.364,0.364c-0.311,0.311-0.364,0.778-0.176,1.175 c0.108,0.229,0.206,0.465,0.293,0.705C39.679,15.708,40.047,16,40.486,16H41c0.552,0,1,0.448,1,1v2c0,0.552-0.448,1-1,1h-0.514 c-0.439,0-0.806,0.292-0.955,0.705c-0.087,0.241-0.184,0.476-0.293,0.705c-0.188,0.397-0.134,0.865,0.176,1.175l0.364,0.364 c0.391,0.391,0.391,1.024,0,1.414l-1.414,1.414c-0.391,0.391-1.024,0.391-1.414,0l-0.364-0.364 c-0.311-0.311-0.778-0.364-1.175-0.176c-0.229,0.108-0.465,0.206-0.705,0.293C34.292,25.679,34,26.047,34,26.486V27 c0,0.552-0.448,1-1,1h-2c-0.552,0-1-0.448-1-1v-0.514c0-0.439-0.292-0.806-0.705-0.955c-0.241-0.087-0.476-0.184-0.705-0.293 c-0.397-0.188-0.865-0.134-1.175,0.176l-0.364,0.364c-0.391,0.391-1.024,0.391-1.414,0l-1.414-1.414 c-0.391-0.391-0.391-1.024,0-1.414l0.364-0.364c0.311-0.311,0.364-0.778,0.176-1.175c-0.108-0.229-0.206-0.465-0.293-0.705 C24.321,20.292,23.953,20,23.514,20H23c-0.552,0-1-0.448-1-1v-2C22,16.448,22.448,16,23,16z M32,22c2.209,0,4-1.791,4-4 c0-2.209-1.791-4-4-4s-4,1.791-4,4C28,20.209,29.791,22,32,22z"/></g><g><path fill="#c80a50" d="M6.45,20.708l0.475,0.197c0.405,0.168,0.857,0.038,1.152-0.286c0.172-0.189,0.352-0.369,0.54-0.54 c0.325-0.295,0.455-0.748,0.287-1.153L8.708,18.45c-0.211-0.51,0.031-1.095,0.541-1.307l1.848-0.765 c0.51-0.211,1.095,0.031,1.307,0.541l0.197,0.475c0.168,0.406,0.58,0.634,1.019,0.613c0.253-0.012,0.508-0.013,0.764-0.001 c0.438,0.021,0.849-0.207,1.017-0.612l0.197-0.475c0.211-0.51,0.796-0.753,1.307-0.541l1.848,0.765 c0.51,0.211,0.753,0.796,0.541,1.307l-0.197,0.475c-0.168,0.405-0.038,0.857,0.286,1.152c0.189,0.172,0.369,0.353,0.54,0.54 c0.295,0.325,0.748,0.455,1.153,0.287l0.475-0.197c0.51-0.211,1.095,0.031,1.307,0.541l0.765,1.848 c0.211,0.51-0.031,1.095-0.541,1.307L22.605,24.6c-0.406,0.168-0.634,0.58-0.613,1.019c0.012,0.253,0.013,0.508,0,0.764 c-0.021,0.438,0.207,0.849,0.612,1.017l0.475,0.197c0.51,0.211,0.753,0.796,0.541,1.307l-0.765,1.848 c-0.211,0.51-0.796,0.753-1.307,0.541l-0.475-0.197c-0.405-0.168-0.857-0.038-1.152,0.286c-0.172,0.189-0.352,0.369-0.54,0.54 c-0.325,0.295-0.455,0.748-0.287,1.153l0.197,0.475c0.211,0.51-0.031,1.095-0.541,1.307l-1.848,0.765 c-0.51,0.211-1.095-0.031-1.307-0.541L15.4,34.605c-0.168-0.406-0.58-0.634-1.019-0.613c-0.253,0.012-0.508,0.013-0.764,0 c-0.438-0.021-0.849,0.207-1.017,0.612l-0.197,0.475c-0.211,0.51-0.796,0.753-1.307,0.541l-1.848-0.765 c-0.51-0.211-0.753-0.796-0.541-1.307l0.197-0.475c0.168-0.405,0.038-0.857-0.286-1.152c-0.189-0.172-0.369-0.353-0.54-0.54 c-0.295-0.325-0.748-0.455-1.153-0.287L6.45,31.292c-0.51,0.211-1.095-0.031-1.307-0.541l-0.765-1.848 c-0.211-0.51,0.031-1.095,0.541-1.307L5.395,27.4c0.406-0.168,0.634-0.58,0.613-1.019c-0.012-0.253-0.013-0.508,0-0.764 C6.028,25.179,5.8,24.768,5.395,24.6L4.92,24.404c-0.51-0.211-0.753-0.796-0.541-1.307l0.765-1.848 C5.355,20.739,5.94,20.497,6.45,20.708z M12.469,29.696c2.041,0.845,4.381-0.124,5.226-2.165 c0.845-2.041-0.124-4.381-2.165-5.226s-4.381,0.124-5.226,2.165C9.459,26.51,10.428,28.85,12.469,29.696z"/></g><g><path fill="#00a0c8" d="M42.45,20.708l0.475,0.197c0.405,0.168,0.857,0.038,1.152-0.286c0.172-0.189,0.352-0.369,0.54-0.54 c0.325-0.295,0.455-0.748,0.287-1.153l-0.197-0.475c-0.211-0.51,0.031-1.095,0.541-1.307l1.848-0.765 c0.51-0.211,1.095,0.031,1.307,0.541l0.197,0.475c0.168,0.406,0.58,0.634,1.019,0.613c0.253-0.012,0.508-0.013,0.764-0.001 c0.438,0.021,0.849-0.207,1.017-0.612l0.197-0.475c0.211-0.51,0.796-0.753,1.307-0.541l1.848,0.765 c0.51,0.211,0.753,0.796,0.541,1.307l-0.197,0.475c-0.168,0.405-0.038,0.857,0.286,1.152c0.189,0.172,0.369,0.353,0.54,0.54 c0.295,0.325,0.748,0.455,1.153,0.287l0.475-0.197c0.51-0.211,1.095,0.031,1.307,0.541l0.765,1.848 c0.211,0.51-0.031,1.095-0.541,1.307L58.605,24.6c-0.406,0.168-0.634,0.58-0.613,1.019c0.012,0.253,0.013,0.508,0,0.764 c-0.021,0.438,0.207,0.849,0.612,1.017l0.475,0.197c0.51,0.211,0.753,0.796,0.541,1.307l-0.765,1.848 c-0.211,0.51-0.796,0.753-1.307,0.541l-0.475-0.197c-0.405-0.168-0.857-0.038-1.152,0.286c-0.172,0.189-0.352,0.369-0.54,0.54 c-0.325,0.295-0.455,0.748-0.287,1.153l0.197,0.475c0.211,0.51-0.031,1.095-0.541,1.307l-1.848,0.765 c-0.51,0.211-1.095-0.031-1.307-0.541L51.4,34.605c-0.168-0.406-0.58-0.634-1.019-0.613c-0.253,0.012-0.508,0.013-0.764,0 c-0.438-0.021-0.849,0.207-1.017,0.612l-0.197,0.475c-0.211,0.51-0.796,0.753-1.307,0.541l-1.848-0.765 c-0.51-0.211-0.753-0.796-0.541-1.307l0.197-0.475c0.168-0.405,0.038-0.857-0.286-1.152c-0.189-0.172-0.369-0.353-0.54-0.54 c-0.295-0.325-0.748-0.455-1.153-0.287l-0.475,0.197c-0.51,0.211-1.095-0.031-1.307-0.541l-0.765-1.848 c-0.211-0.51,0.031-1.095,0.541-1.307l0.475-0.197c0.406-0.168,0.634-0.58,0.613-1.019c-0.012-0.253-0.013-0.508,0-0.764 c0.021-0.438-0.207-0.849-0.612-1.017l-0.475-0.197c-0.51-0.211-0.753-0.796-0.541-1.307l0.765-1.848 C41.355,20.739,41.94,20.497,42.45,20.708z M48.469,29.696c2.041,0.845,4.381-0.124,5.226-2.165 c0.845-2.041-0.124-4.381-2.165-5.226s-4.381,0.124-5.226,2.165C45.459,26.51,46.428,28.85,48.469,29.696z"/></g></g></svg>