<svg xmlns="http://www.w3.org/2000/svg"  viewBox="0 0 64 64" width="48px" height="48px"><g id="Icons"><path fill="#0a5078" d="M6,52h52c1.105,0,2-0.895,2-2V14c0-1.105-0.895-2-2-2H6c-1.105,0-2,0.895-2,2v36C4,51.105,4.895,52,6,52z"/><path fill="#00325a" d="M58,59H34c-1.105,0-2-0.895-2-2V45c0-1.105,0.895-2,2-2h24c1.105,0,2,0.895,2,2v12 C60,58.105,59.105,59,58,59z"/><path fill="#00325a" d="M30,21H6c-1.105,0-2-0.895-2-2V7c0-1.105,0.895-2,2-2h24c1.105,0,2,0.895,2,2v12C32,20.105,31.105,21,30,21z"/><path fill="#00a0c8" d="M9,48h46c0.552,0,1-0.448,1-1V17c0-0.552-0.448-1-1-1H9c-0.552,0-1,0.448-1,1v30C8,47.552,8.448,48,9,48z"/><path fill="#0082aa" d="M34,43c-1.105,0-2,0.895-2,2v3h23c0.552,0,1-0.448,1-1v-4H34z"/><path fill="#0082aa" d="M9,16c-0.552,0-1,0.448-1,1v4h22c1.105,0,2-0.895,2-2v-3H9z"/><rect width="8" height="4" x="28" y="52" fill="#0a5078" transform="rotate(-180 32 54)"/><path fill="#0a5078" d="M20,58h24v0c0-1.105-0.895-2-2-2H22C20.895,56,20,56.895,20,58L20,58z"/><rect width="8" height="1" x="28" y="52" fill="#00325a" transform="rotate(-180 32 52.5)"/><path fill="#c80a50" d="M30,20H6c-1.105,0-2-0.895-2-2V6c0-1.105,0.895-2,2-2h24c1.105,0,2,0.895,2,2v12C32,19.105,31.105,20,30,20 z"/><path fill="#f0f0f0" d="M12,17c-0.256,0-0.512-0.098-0.707-0.293l-4-4c-0.391-0.391-0.391-1.023,0-1.414l4-4 c0.391-0.391,1.023-0.391,1.414,0s0.391,1.023,0,1.414L9.414,12l3.293,3.293c0.391,0.391,0.391,1.023,0,1.414 C12.512,16.902,12.256,17,12,17z"/><path fill="#f0f0f0" d="M24,17c-0.256,0-0.512-0.098-0.707-0.293c-0.391-0.391-0.391-1.023,0-1.414L26.586,12l-3.293-3.293 c-0.391-0.391-0.391-1.023,0-1.414s1.023-0.391,1.414,0l4,4c0.391,0.391,0.391,1.023,0,1.414l-4,4 C24.512,16.902,24.256,17,24,17z"/><path fill="#f0f0f0" d="M15.999,17c-0.15,0-0.303-0.034-0.446-0.105c-0.494-0.247-0.694-0.848-0.447-1.342l4-8 c0.248-0.495,0.848-0.695,1.342-0.447c0.494,0.247,0.694,0.848,0.447,1.342l-4,8C16.719,16.798,16.366,17,15.999,17z"/><path fill="#fab400" d="M58,60H34c-1.105,0-2-0.895-2-2V46c0-1.105,0.895-2,2-2h24c1.105,0,2,0.895,2,2v12 C60,59.105,59.105,60,58,60z"/><path fill="#f0f0f0" d="M40,57c-0.256,0-0.512-0.098-0.707-0.293l-4-4c-0.391-0.391-0.391-1.023,0-1.414l4-4 c0.391-0.391,1.023-0.391,1.414,0s0.391,1.023,0,1.414L37.414,52l3.293,3.293c0.391,0.391,0.391,1.023,0,1.414 C40.512,56.902,40.256,57,40,57z"/><path fill="#f0f0f0" d="M52,57c-0.256,0-0.512-0.098-0.707-0.293c-0.391-0.391-0.391-1.023,0-1.414L54.586,52l-3.293-3.293 c-0.391-0.391-0.391-1.023,0-1.414s1.023-0.391,1.414,0l4,4c0.391,0.391,0.391,1.023,0,1.414l-4,4 C52.512,56.902,52.256,57,52,57z"/><path fill="#f0f0f0" d="M43.999,57c-0.15,0-0.303-0.034-0.446-0.105c-0.494-0.247-0.694-0.848-0.447-1.342l4-8 c0.248-0.494,0.848-0.695,1.342-0.447c0.494,0.247,0.694,0.848,0.447,1.342l-4,8C44.719,56.798,44.366,57,43.999,57z"/><g><path fill="#0082aa" d="M41,30h-0.514c-0.439,0-0.806-0.292-0.955-0.705c-0.087-0.241-0.184-0.476-0.293-0.705 c-0.188-0.397-0.134-0.865,0.176-1.175l0.364-0.364c0.391-0.391,0.391-1.024,0-1.414l-1.414-1.414 c-0.391-0.391-1.024-0.391-1.414,0l-0.364,0.364c-0.311,0.311-0.778,0.364-1.175,0.176c-0.229-0.108-0.465-0.206-0.705-0.293 C34.292,24.321,34,23.953,34,23.514V23c0-0.552-0.448-1-1-1h-2c-0.552,0-1,0.448-1,1v0.514c0,0.439-0.292,0.806-0.705,0.955 c-0.241,0.087-0.476,0.184-0.705,0.293c-0.397,0.188-0.865,0.134-1.175-0.176l-0.364-0.364c-0.391-0.391-1.024-0.391-1.414,0 l-1.414,1.414c-0.391,0.391-0.391,1.024,0,1.414l0.364,0.364c0.311,0.311,0.364,0.778,0.176,1.175 c-0.108,0.229-0.206,0.465-0.293,0.705C24.321,29.708,23.953,30,23.514,30H23c-0.552,0-1,0.448-1,1v2c0,0.552,0.448,1,1,1h0.514 c0.439,0,0.806,0.292,0.955,0.705c0.087,0.241,0.184,0.476,0.293,0.705c0.188,0.397,0.134,0.865-0.176,1.175l-0.364,0.364 c-0.391,0.391-0.391,1.024,0,1.414l1.414,1.414c0.391,0.391,1.024,0.391,1.414,0l0.364-0.364 c0.311-0.311,0.778-0.364,1.175-0.176c0.229,0.108,0.465,0.206,0.705,0.293C29.708,39.679,30,40.047,30,40.486V41 c0,0.552,0.448,1,1,1h2c0.552,0,1-0.448,1-1v-0.514c0-0.439,0.292-0.806,0.705-0.955c0.241-0.087,0.476-0.184,0.705-0.293 c0.397-0.188,0.865-0.134,1.175,0.176l0.364,0.364c0.391,0.391,1.024,0.391,1.414,0l1.414-1.414c0.391-0.391,0.391-1.024,0-1.414 l-0.364-0.364c-0.311-0.311-0.364-0.778-0.176-1.175c0.108-0.229,0.206-0.465,0.293-0.705C39.679,34.292,40.047,34,40.486,34H41 c0.552,0,1-0.448,1-1v-2C42,30.448,41.552,30,41,30z M32,36c-2.209,0-4-1.791-4-4c0-2.209,1.791-4,4-4s4,1.791,4,4 C36,34.209,34.209,36,32,36z"/></g><path fill="#c80a50" d="M21.707,31.293l-3-3c-0.286-0.286-0.715-0.371-1.09-0.217C17.243,28.231,17,28.596,17,29v2h-3 c-0.552,0-1-0.449-1-1V20h-2v10c0,1.654,1.346,3,3,3h3v2c0,0.404,0.243,0.769,0.617,0.924C17.741,35.975,17.871,36,18,36 c0.26,0,0.516-0.102,0.707-0.293l3-3C22.098,32.316,22.098,31.684,21.707,31.293z"/><path fill="#fab400" d="M50,31h-3v-2c0-0.404-0.243-0.769-0.617-0.924c-0.373-0.155-0.803-0.069-1.09,0.217l-3,3 c-0.391,0.391-0.391,1.023,0,1.414l3,3C45.484,35.898,45.74,36,46,36c0.129,0,0.259-0.025,0.383-0.076 C46.757,35.769,47,35.404,47,35v-2h3c0.552,0,1,0.449,1,1v10h2V34C53,32.346,51.654,31,50,31z"/></g></svg>